# xmcd
#
# Track frame offsets:
#	150
#	22057
#	54627
#	102724
#	127606
#	155811
#	170037
#	200032
#	224555
#	272294
#	314629
#
# Disc length: 4285 seconds
#
# Revision: 1
# Processed by: cddbd v1.5.1PL2 Copyright (c) Steve Scherf et al.
# Submitted via: audiograbber 1.83.01
#
DISCID=ab10bb0b
DTITLE=Cornelia Funke - Drachenreiter [CD1)
DYEAR=2000
DGENRE=Speech
TTITLE0=Schlechte Nachrichten
TTITLE1=Schieferbart erz‰hlt
TTITLE2=Die groﬂe Stadt und der kleine Mensch
TTITLE3=Nesselbrand, der Goldene
TTITLE4=Der Spion
TTITLE5=Der Sturm
TTITLE6=Im Lager der Menschen
TTITLE7=Der Basilisk
TTITLE8=Professor Wiesengrund erz‰hlt
TTITLE9=Fliegenbeins Bericht
TTITLE10=Der blinde Passagier (Teil 1)
EXTD=
EXTT0=
EXTT1=
EXTT2=
EXTT3=
EXTT4=
EXTT5=
EXTT6=
EXTT7=
EXTT8=
EXTT9=
EXTT10=
PLAYORDER=
